<svg id="Vrstva_1" data-name="Vrstva 1" xmlns="http://www.w3.org/2000/svg" viewBox="0 0 539.31 208.19"><path d="M427.78,436.48a63.05,63.05,0,0,1-5,4,11.1,11.1,0,0,0-3.56,5.76c-1,3.32-2.42,6.54-3.76,9.76-1.65,4-3.42,7.88-5.09,11.83-1.86,4.39-3.76,8.77-5.46,13.22-1.56,4.09-2.89,8.28-4.3,12.43-.66,2-1.28,3.95-1.91,5.92-.11.36-.17.73-.38,1.65,1.53-1.21,2.68-2,3.71-3,3.47-3.17,6.83-6.46,10.36-9.55a50.66,50.66,0,0,1,7.36-5.65c3.13-1.85,5.55-4.5,8.43-6.61,2-1.5,4.08-3,6.18-4.45,2.88-2,5.79-3.91,8.75-5.78,6.65-4.2,12.66-9.4,19.93-12.66,2.64-1.18,5.19-1.83,8.06-.85,2,.7,4.13,1.12,6.3,1.68a25.8,25.8,0,0,1,5-8.11,45.8,45.8,0,0,1,12.23-9.44,68.67,68.67,0,0,1,8.68-4c8.47-3.17,16-1.07,22.65,4.62a21.47,21.47,0,0,1,2.86,2.86c4.09,5.21,3.81,10.92,1.71,16.77-.52,1.47-1.15,2.9-1.8,4.53a14.91,14.91,0,0,0,2.14,0c7.63-1.31,15.23-2.82,22.88-3.9,5.69-.81,11.45-1.07,17.17-1.58a4.92,4.92,0,0,1,4.15,1.76c-.44,1.23-1.34,1.3-2.2,1.38-7.11.69-13.87,2.94-20.76,4.59q-4.41,1-8.82,2.13c-3.87.95-7.73,1.92-11.6,2.88-2.4.6-4.81,1.15-7.18,1.83a3.83,3.83,0,0,0-1.91,1.22,147.57,147.57,0,0,1-14.7,16.87c-3.34,3.28-6.89,6.36-10.42,9.44-3.36,2.92-6.74,5.84-10.29,8.52-4.43,3.36-9.17,6.38-14.52,8a19.2,19.2,0,0,1-16.52-2.38c-6.74-4.33-11.37-10.22-13.26-18a21.79,21.79,0,0,1,.38-12.76c.29-.8.42-1.67.71-2.83a5.64,5.64,0,0,0-1.42.55c-2.76,2.38-5.62,4.67-8.21,7.24-4.16,4.12-8.08,8.49-12.19,12.66s-8.39,8.51-12.79,12.54c-3.38,3.09-7.21,5.64-12.11,5.34-6.22-.37-10.81-3.48-13.85-8.85a8.78,8.78,0,0,1-.87-3.43c-.41-4.14.64-8.09,1.8-12,.55-1.83,1.16-3.64,1.81-5.44,2.07-5.68,4.16-11.34,6.24-17,.29-.81.5-1.65.78-2.56a3.25,3.25,0,0,0-3.64.74c-2.82,2.56-5.61,5.18-8.37,7.81-3.85,3.67-7.68,7.37-11.5,11.06-4.11,4-8.12,8.06-12.34,11.9-2.86,2.6-5.57,5.44-9.12,7.21-4.55,2.27-9,1.69-13.29-.58a17.71,17.71,0,0,1-6.12-5.24,7.37,7.37,0,0,1-1.84-4.57,58.18,58.18,0,0,1,.75-8.56,117.49,117.49,0,0,1,2.95-11.83c1.94-6.39,4.07-12.73,6.17-19.08,1.22-3.71,2.55-7.38,3.79-11.08a17.75,17.75,0,0,0,.47-2.19l-.45-.24c-.81.72-1.65,1.42-2.43,2.17a3.51,3.51,0,0,1-4.5.79,14.31,14.31,0,0,1-2.76-1.85,5.22,5.22,0,0,1-.35-7.49,26.43,26.43,0,0,1,12.44-8l.23-.08c3.76-1.36,3.7-1.38,5.18-5.16,3.7-9.49,7.5-18.94,12.06-28.06,2.93-5.83,5.77-11.7,8.73-17.52.9-1.76,2.24-3.3,3.1-5.08,1.46-3,4.23-3,6.72-1.89a11.55,11.55,0,0,1,3.4,2.59,3.47,3.47,0,0,1,.38,4c-1,2.17-2,4.33-3,6.51q-2.42,5.34-4.78,10.68c-1.86,4.22-3.79,8.4-5.53,12.67s-3.21,8.46-4.81,12.7c-.51,1.37-1.06,2.73-1.69,4.35,2,0,3.59,0,5.17,0a146.88,146.88,0,0,1,28.17,2c2.6.4,5.2.81,7.77,1.33,1.33.28,2.87.49,3.13,2.7h-2.68c-8,0-16-.22-24,.15-5.15.24-10.26,1.36-15.38,2.12-1.09.16-2.14.57-3.24.74-2.16.33-2.94,1.94-3.51,3.7-2.29,7.13-4.5,14.27-6.82,21.38-1.75,5.37-3.77,10.65-5.39,16.05a134.69,134.69,0,0,0-4.41,18,3.72,3.72,0,0,0,1-.24q6.6-4.71,13.19-9.45c8.21-5.89,16.38-11.82,24.64-17.63,4-2.84,8.31-5.35,12.35-8.18a46.14,46.14,0,0,0,7-5.77c1.27-1.32,1.88-3.3,2.66-5,2.81-6.25,5.55-12.53,8.35-18.78,4.57-10.17,9.13-20.34,13.76-30.48q3.51-7.71,7.25-15.31a54.57,54.57,0,0,1,14.15-18.1,30.33,30.33,0,0,1,8.56-5.18,10.32,10.32,0,0,1,7.93.61c3.34,1.46,6.32,3.43,7.94,6.91a7.4,7.4,0,0,1,.29,5.55c-1.83,6.21-4.76,11.92-7.6,17.7s-13.06,21.2-16.89,26.45C446.42,415.56,440.3,424.24,427.78,436.48ZM477.33,460c-2.21.31-3.93,1.58-5.67,2.8a37,37,0,0,0-9.73,10.38c-3.1,4.78-6,9.68-7.2,15.36a21.28,21.28,0,0,0,2.6,15.89,2.27,2.27,0,0,0,2.78,1.18,26.41,26.41,0,0,0,9.89-4.65,139.09,139.09,0,0,0,11.36-8.68c5.12-4.41,10.05-9.05,14.94-13.72,1.37-1.3,3-2.54,3.85-4.63C490.17,473,482.39,468.71,477.33,460Zm41-19.26a60.85,60.85,0,0,0-6,1.82,46.46,46.46,0,0,0-14.7,9.47,41.75,41.75,0,0,0-4.86,5.52c-1.33,1.84-2.4,3.91-2,6.53a12,12,0,0,0,2.1.41c4.86,0,9.72.07,14.58,0a2.81,2.81,0,0,0,1.94-1.09,63,63,0,0,0,8.83-17.08A7.74,7.74,0,0,0,518.32,440.72Zm-60.46-69a11.53,11.53,0,0,0-1.8,1.32c-2.07,2.41-4.26,4.73-6.08,7.32a59.09,59.09,0,0,0-4.36,7.62c-2,3.9-3.8,7.85-5.59,11.83s-3.35,7.73-5,11.61c-.63,1.5-1.14,3-1.87,5C438.66,412.27,456.79,378.39,457.86,371.73Z" transform="translate(-35.74 -322.38)"/><path d="M67.61,406.63c-1.07,1.91-2.17,3.81-3.2,5.75-3.24,6.11-7,11.95-9.38,18.5-1,2.68-1.7,5.43-2.57,8.13-.44,1.35-1.05,2.65-1.42,4-.58,2.2-1.06,4.43-1.53,6.66-.69,3.27-1.31,6.55-2,9.82A61.12,61.12,0,0,0,46,473.44c.06,3.1-.2,6.21-.05,9.31a39.09,39.09,0,0,0,2,10.67,33.23,33.23,0,0,0,19.25,20.8,63.08,63.08,0,0,0,29.67,5.27c5.56-.42,11.08-1.42,16.62-2.08a92.61,92.61,0,0,0,16-3.88,130.33,130.33,0,0,0,25.93-10.91c5.27-3,10.68-5.71,15.73-9,5.52-3.6,10.72-7.69,16-11.61a96.69,96.69,0,0,0,11.6-10.27c4.57-4.68,8.77-9.64,11.72-15.54,1.3-2.59,2.34-5.24,2.15-8.23a2.15,2.15,0,0,0-1.48-2.17,28.59,28.59,0,0,0-15.07-1.4c-4.19.6-8.4,1.13-12.54,2-5.15,1.07-10.24,2.43-15.34,3.72-2.7.68-5.41,1.36-8.06,2.22-4.92,1.59-9.83,3.24-14.69,5-4.56,1.64-9.06,3.45-13.58,5.19s-9.14,3.68-13.78,5.28a30.41,30.41,0,0,1-7,1.39c-6.23.6-10.61-2.67-14.24-7.24-4.09-5.15-4.88-10.94-3.28-17.19,2-7.87,5.54-15.09,9.51-22.12,2.94-5.21,6.16-10.21,9.55-15.13,4.56-6.61,9.28-13.07,14.33-19.31,3.91-4.82,8.1-9.37,12.37-13.87,5.44-5.73,11.09-11.23,17-16.42q9.94-8.73,20.43-16.83A99.94,99.94,0,0,1,197,329.42a91.48,91.48,0,0,1,15.88-5.89c4.48-1.1,9-1.63,13.54-.58a18.52,18.52,0,0,1,13.18,10.44c1.71,3.64,1.3,7.48-.16,11.18-3.52,8.9-8.92,16.66-15.18,23.79-4.24,4.84-8.69,9.52-13.36,13.95a91.79,91.79,0,0,1-7,6.62c-2.52,1.92-4.81,4.14-7.22,6.2q-10.59,9.06-21.19,18.09c-2.67,2.27-5.35,4.5-8.08,6.69-1,.79-2.22,1.28-3.17,2.11-3,2.63-7,.73-7.42-3.28,2.13-1.78,4.3-3.51,6.39-5.34q6.56-5.72,13-11.5c4.51-4,9.05-8,13.48-12.09q7.44-6.87,14.69-14c3.4-3.35,6.78-6.74,9.88-10.37,6.32-7.39,12.26-15.08,16.31-24a41.73,41.73,0,0,0,2.06-5.84,17,17,0,0,0,.26-3.3c-2.39-1.16-4.72-.91-7-.71-4,.35-7.7,1.94-11.38,3.46a128.07,128.07,0,0,0-22.44,12.1A126.29,126.29,0,0,0,182,354.8q-6.76,5.64-13.26,11.61c-4,3.67-7.92,7.41-11.7,11.3-4.86,5-9.65,10.09-14.26,15.33-3.1,3.52-5.89,7.32-8.7,11.08-3.24,4.33-6.46,8.69-9.51,13.16q-4.1,6-7.77,12.29c-2.4,4.12-4.67,8.33-6.72,12.64-1.7,3.58-3,7.35-4.45,11.06a10.31,10.31,0,0,0-.23,2.48c1.94.33,3.45-.57,5-1.07,3.62-1.2,7.17-2.63,10.73-4,3-1.19,6-2.51,9.07-3.65,4.32-1.61,8.63-3.25,13-4.65,5.31-1.7,10.66-3.28,16.05-4.69,4.79-1.25,9.62-2.36,14.49-3.22,5.58-1,11.2-1.73,16.83-2.38a32.42,32.42,0,0,1,13.28,1.38,29.89,29.89,0,0,1,17.4,14c3.31,5.63,3.38,11.37,1.09,17.19a41.88,41.88,0,0,1-4.2,7.49,72.23,72.23,0,0,1-11.42,13.13c-4.35,4.05-9,7.76-13.72,11.44a192.66,192.66,0,0,1-20.86,13.82c-4.72,2.79-9.68,5.21-14.65,7.52-4.39,2-8.91,3.83-13.46,5.48a134.58,134.58,0,0,1-13.67,4.32,98.26,98.26,0,0,1-13.44,2.29c-10.82,1.12-21.58,0-32.15-2.15a71.17,71.17,0,0,1-30.22-13.61c-7.76-6.05-13.76-13.48-16.77-23A43,43,0,0,1,36.21,472c.75-5,1.3-10.15,2.39-15.13,1.06-4.79,2.64-9.48,4.1-14.18a99.66,99.66,0,0,1,11.11-24c2.94-4.64,6.4-9,11.47-11.61.66-.34,1.38-.57,2.08-.85Z" transform="translate(-35.74 -322.38)"/><path d="M283.06,496.86c4.08-.43,7.51-2,10.91-3.52s6.95-3.18,10.29-5,6.48-4,9.74-5.92c4-2.4,8.07-4.72,12.1-7.1,1.84-1.09,3.63-2.25,5.47-3.34.57-.34,1.36-.92,1.81-.75a6,6,0,0,1,2.71,1.79,7,7,0,0,1-.42,9.18c-3.58,4-7.21,8.05-11.07,11.82a72.8,72.8,0,0,1-7.7,6c-2.43,1.8-4.84,3.64-7.41,5.23a65.93,65.93,0,0,1-8,4.21,38.22,38.22,0,0,1-7.67,2.57,26.18,26.18,0,0,1-13.05-.41c-5.83-1.87-10.29-5.64-11.83-12a24.32,24.32,0,0,1-.42-10.9c.41-2,.24-4.14.53-6.18a25.54,25.54,0,0,1,1.23-5.49,115.19,115.19,0,0,1,4.85-11.37,73.23,73.23,0,0,1,5.39-8.42,62.33,62.33,0,0,1,9.63-11.14c4.95-4.45,10.39-8,17.15-8.61a20.54,20.54,0,0,1,11.34,2.26,22.9,22.9,0,0,1,6.78,5.48,7.2,7.2,0,0,1-.44,9.91c-2.45,2.49-5.11,4.78-7.62,7.22-1.7,1.65-3.32,3.4-4.93,5.15a23,23,0,0,1-7.11,5.11,81.72,81.72,0,0,0-9.75,6c-3.62,2.39-7.44,4.51-11.2,6.69-.79.45-1.6.8-1.76,1.79A20,20,0,0,0,283.06,496.86Zm31.26-49.77c-7.09,1.36-20.84,13.73-21.9,19.48a74.63,74.63,0,0,0,6.55-4.29c4.43-3.56,9.27-6.67,12.92-11.11C312.82,450,314.09,449,314.32,447.09Z" transform="translate(-35.74 -322.38)"/><path d="M286.58,436c1.32-1.66,2.94-3.17,3.4-5.46a10.12,10.12,0,0,0-.76-1.17c-1.4-1.67-2.56-1.8-4.3-.48-.76.58-1.41,1.3-2.19,1.84-3.69,2.5-7.42,4.93-11.1,7.44-4.47,3.05-9.15,5.86-13.3,9.32a143.5,143.5,0,0,0-18.75,19,5.69,5.69,0,0,1-1.1.81l-.33-.32c.56-1.64,1.09-3.3,1.68-4.94a119.17,119.17,0,0,1,11.74-23.67,29.37,29.37,0,0,1,6.92-8.17c.93-.69.91-1.54,0-2.43a23,23,0,0,0-2.55-2.17c-2.74-2-5.33-1.7-8.06.35-5,3.78-8.19,9.07-11.47,14.19a81.35,81.35,0,0,0-5.89,11.68,171.31,171.31,0,0,0-6.69,17.06c-2.15,7-3.7,14.19-5.37,21.34-1.07,4.57-1.47,9.3-3.28,13.7a9.07,9.07,0,0,0-.38,1.38,5,5,0,0,0,.54,3.66c1.94,3.74,5.39,5.29,9.06,6.45,2.16.68,3.23-.15,3.77-2.44a30.62,30.62,0,0,1,.78-3.47c2.67-7.16,6.83-13.49,11.34-19.56,0,0,19.56-22.65,33.34-38.73C280.08,443.74,285.25,437.67,286.58,436Z" transform="translate(-35.74 -322.38)"/><path d="M336.31,407.43c1.33.6,1.58,1.4,1,2.72a6.53,6.53,0,0,1-.84,1.45c-2.78,3.47-5.53,7-8.38,10.39-4,4.73-9.61,5.69-15.23,3a16.45,16.45,0,0,1-10.6-13.34,35.77,35.77,0,0,1-.68-5.15,12,12,0,0,1,.47-3.91,1.77,1.77,0,0,1,2.27-1.22,33.49,33.49,0,0,1,4.35,1.28,38.14,38.14,0,0,1,5,2.62,4,4,0,0,1,1.86,3.9c-.06,1-.17,2.07-.21,3.11s0,2.18,0,3.64C315.3,416,328.81,417.4,336.31,407.43Z" transform="translate(-35.74 -322.38)"/></svg>